STARTFONT 2.1
FONT -Monotype-Courier-Regular-R-Normal--50-360-100-100-M-245-iso8859-4
SIZE 36 100 100
FONTBOUNDINGBOX 36 53 -3 -13

STARTPROPERTIES 24
FOUNDRY "Monotype"
FAMILY_NAME "Courier"
WEIGHT_NAME "Regular"
SLANT "R"
SETWIDTH_NAME "Normal"
ADD_STYLE_NAME ""
PIXEL_SIZE 50
POINT_SIZE 360
RESOLUTION_X 100
RESOLUTION_Y 100
SPACING "M"
AVERAGE_WIDTH 245
CHARSET_REGISTRY "iso8859"
CHARSET_ENCODING "4"
FACE_NAME "Courier ISO Latin4"
_DEC_DEVICE_FONTNAMES "PS=courier-lat4"
COPYRIGHT "Copyright (c) 1993 Monotype Typography Ltd."
CAP_HEIGHT 31
X_HEIGHT 23
WEIGHT 10
QUAD_WIDTH 32
DEFAULT_CHAR 160
FONT_DESCENT 14
FONT_ASCENT 42
ENDPROPERTIES

CHARS 191

STARTCHAR space
ENCODING 32
SWIDTH 600 0
DWIDTH 30 0
BBX 0 0 0 0
BITMAP
ENDCHAR

STARTCHAR exclam
ENCODING 33
SWIDTH 600 0
DWIDTH 30 0
BBX 9 33 11 -1
BITMAP
1800
3C00
3C00
3C00
3C00
3C00
3C00
3C00
3C00
3C00
3C00
1800
1800
1800
1800
1800
1800
1800
1800
1800
1800
0000
0000
0000
0000
0000
0000
0000
3C00
7E00
7E00
7E00
3C00
ENDCHAR

STARTCHAR quotedbl
ENCODING 34
SWIDTH 600 0
DWIDTH 30 0
BBX 20 14 5 17
BITMAP
3F0FC0
3F0FC0
3F0FC0
3E0FC0
3E07C0
3E07C0
3E0780
1E0780
1E0780
1E0780
1C0780
1C0380
1C0380
080100
ENDCHAR

STARTCHAR numbersign
ENCODING 35
SWIDTH 600 0
DWIDTH 30 0
BBX 24 36 3 -3
BITMAP
004080
0061C0
006180
006180
006180
006180
00C180
00C180
00C180
00C180
00C180
00C180
00C180
1FFFFC
1FFFFC
00C380
00C300
00C300
00C300
00C300
018300
3FFFF8
3FFFF8
018300
018300
018300
018300
018300
018300
018600
018600
018600
018600
018600
030600
010200
ENDCHAR

STARTCHAR dollar
ENCODING 36
SWIDTH 600 0
DWIDTH 30 0
BBX 22 38 5 -4
BITMAP
006000
006000
006000
006000
01F000
07FE60
0F07E0
1C01E0
1800E0
300060
300060
300000
300000
380000
1C0000
0F0000
07F800
00FF00
0007C0
0000E0
000070
000030
000030
600030
600030
600070
700060
7C01C0
6F0F80
67FF00
007800
006000
006000
006000
006000
006000
006000
006000
ENDCHAR

STARTCHAR percent
ENCODING 37
SWIDTH 600 0
DWIDTH 30 0
BBX 23 33 4 -1
BITMAP
03C000
07F000
0C1800
180C00
100400
300600
300600
300600
300600
100400
180C00
0C1800
07F000
01C00C
000078
0003C0
001E00
00F000
078000
3C0000
200780
001FC0
003060
006030
004010
00C018
00C018
00C018
004010
006030
003060
001FC0
000700
ENDCHAR

STARTCHAR ampersand
ENCODING 38
SWIDTH 600 0
DWIDTH 30 0
BBX 21 27 5 -1
BITMAP
00F800
03FF00
070E00
060000
0C0000
0C0000
0C0000
0C0000
060000
060000
030000
030000
078000
0FC000
1CC0E0
30E0E0
3070C0
603180
603980
601F80
600F00
700E00
300E00
380F00
1C3BE0
0FF1E0
03E000
ENDCHAR

STARTCHAR quoteright
ENCODING 39
SWIDTH 600 0
DWIDTH 30 0
BBX 13 15 6 16
BITMAP
07E0
07E0
0FC0
0FC0
0F80
1F80
1F00
1F00
1E00
3E00
3C00
3800
7800
7000
7000
ENDCHAR

STARTCHAR parenleft
ENCODING 40
SWIDTH 600 0
DWIDTH 30 0
BBX 12 37 13 -6
BITMAP
00C0
00C0
01C0
0380
0380
0300
0700
0600
0E00
0E00
1C00
1C00
1C00
1C00
3800
3800
3800
3800
3800
3800
3800
3800
3800
1C00
1C00
1C00
1C00
0E00
0E00
0600
0700
0300
0380
0180
01C0
00C0
00C0
ENDCHAR

STARTCHAR parenright
ENCODING 41
SWIDTH 600 0
DWIDTH 30 0
BBX 12 37 6 -6
BITMAP
3000
3800
3800
1C00
0C00
0E00
0E00
0700
0700
0380
0380
0380
0380
03C0
01C0
01C0
01C0
01C0
01C0
01C0
01C0
01C0
01C0
01C0
0380
0380
0380
0380
0700
0700
0E00
0E00
0C00
1C00
1800
3800
3000
ENDCHAR

STARTCHAR asterisk
ENCODING 42
SWIDTH 600 0
DWIDTH 30 0
BBX 22 17 4 13
BITMAP
003000
003000
003000
003000
003000
203010
3C30F0
1FB7E0
03FF00
007800
007800
00FC00
01CE00
018600
030300
070380
060180
ENDCHAR

STARTCHAR plus
ENCODING 43
SWIDTH 600 0
DWIDTH 30 0
BBX 26 24 2 2
BITMAP
000C0000
000C0000
000C0000
000C0000
000C0000
000C0000
000C0000
000C0000
000C0000
000C0000
000C0000
3FFFFF00
3FFFFF00
000C0000
000C0000
000C0000
000C0000
000C0000
000C0000
000C0000
000C0000
000C0000
000C0000
000C0000
ENDCHAR

STARTCHAR comma
ENCODING 44
SWIDTH 600 0
DWIDTH 30 0
BBX 13 14 6 -7
BITMAP
07E0
0FE0
0FC0
0FC0
0F80
1F00
1F00
1E00
3E00
3C00
3C00
3800
7800
7000
ENDCHAR

STARTCHAR minus
ENCODING 45
SWIDTH 600 0
DWIDTH 30 0
BBX 26 2 2 13
BITMAP
3FFFFF00
3FFFFF00
ENDCHAR

STARTCHAR period
ENCODING 46
SWIDTH 600 0
DWIDTH 30 0
BBX 10 7 10 -1
BITMAP
1E00
3F00
7F80
7F80
7F80
3F00
1E00
ENDCHAR

STARTCHAR slash
ENCODING 47
SWIDTH 600 0
DWIDTH 30 0
BBX 22 38 4 -4
BITMAP
000010
000030
000030
000060
000060
0000E0
0000C0
0001C0
000180
000380
000300
000700
000600
000600
000C00
000C00
001800
001800
003000
003000
007000
006000
00E000
00C000
01C000
018000
038000
030000
030000
060000
060000
0C0000
0C0000
180000
180000
380000
300000
300000
ENDCHAR

STARTCHAR zero
ENCODING 48
SWIDTH 600 0
DWIDTH 30 0
BBX 22 33 5 -1
BITMAP
00FC00
03FE00
070700
0E0380
1C01C0
1800C0
3800E0
300060
300060
700070
600030
600030
600030
600030
600030
600030
600030
600030
600030
600030
600030
600030
600030
700070
300060
300060
3800E0
1800C0
1C01C0
0E0380
070700
03FE00
00F800
ENDCHAR

STARTCHAR one
ENCODING 49
SWIDTH 600 0
DWIDTH 30 0
BBX 22 32 4 0
BITMAP
003000
01F000
0FF000
3F3000
383000
003000
003000
003000
003000
003000
003000
003000
003000
003000
003000
003000
003000
003000
003000
003000
003000
003000
003000
003000
003000
003000
003000
003000
003000
003000
3FFFF0
3FFFF0
ENDCHAR

STARTCHAR two
ENCODING 50
SWIDTH 600 0
DWIDTH 30 0
BBX 23 32 3 0
BITMAP
007E00
01FF80
0783C0
0E00E0
1C0070
180030
380018
300018
000018
000018
000018
000038
000030
000060
0000E0
0001C0
000380
000700
000E00
001C00
003800
007000
00E000
01C000
038000
070000
0E0000
1C0000
380018
700018
7FFFF8
7FFFF8
ENDCHAR

STARTCHAR three
ENCODING 51
SWIDTH 600 0
DWIDTH 30 0
BBX 24 33 3 -1
BITMAP
007E00
03FFC0
0781E0
0E0070
1C0030
080038
000018
000018
000018
000018
000038
000030
000060
0001E0
003F80
003F80
0003E0
0000F0
000038
000018
00001C
00000C
00000C
00000C
00000C
00000C
000018
000018
300030
3C0070
1F83E0
07FF80
00FE00
ENDCHAR

STARTCHAR four
ENCODING 52
SWIDTH 600 0
DWIDTH 30 0
BBX 22 31 4 0
BITMAP
000780
000F80
001D80
001980
003980
003180
006180
00E180
00C180
01C180
018180
030180
030180
060180
0E0180
0C0180
1C0180
180180
300180
300180
7FFFF0
7FFFF0
000180
000180
000180
000180
000180
000180
000180
003FF0
003FF0
ENDCHAR

STARTCHAR five
ENCODING 53
SWIDTH 600 0
DWIDTH 30 0
BBX 24 32 3 -1
BITMAP
0FFFF0
0FFFF0
0C0000
0C0000
0C0000
0C0000
0C0000
0C0000
0C0000
0C0000
0C0000
0C7F00
0FFFC0
0F81E0
0E0070
000038
000018
00001C
00000C
00000C
00000C
00000C
00000C
00000C
00001C
000018
200038
380030
3C00E0
0F83C0
03FF80
00FE00
ENDCHAR

STARTCHAR six
ENCODING 54
SWIDTH 600 0
DWIDTH 30 0
BBX 22 33 6 -1
BITMAP
000FE0
003FF0
00F830
01C000
038000
070000
0E0000
1C0000
180000
380000
300000
300000
700000
607C00
61FF00
638380
6701C0
6E00E0
7C0060
780070
780030
700030
300030
300030
300030
380030
180060
1C0060
0C00E0
0601C0
078780
01FF00
007C00
ENDCHAR

STARTCHAR seven
ENCODING 55
SWIDTH 600 0
DWIDTH 30 0
BBX 22 31 4 0
BITMAP
7FFFF0
7FFFF0
600030
600030
600030
000060
000060
000060
0000C0
0000C0
0000C0
000180
000180
000180
000380
000300
000300
000700
000600
000600
000E00
000C00
000C00
000C00
001800
001800
001800
003000
003000
003000
002000
ENDCHAR

STARTCHAR eight
ENCODING 56
SWIDTH 600 0
DWIDTH 30 0
BBX 22 33 5 -1
BITMAP
00F800
03FE00
070700
0C0180
1C00C0
1800C0
300060
300060
300060
300060
300060
3800E0
1800C0
1C0180
0F0780
03FE00
07FF00
0F0780
1C01C0
3800C0
300060
700060
600030
600030
600030
600030
700070
300060
3800E0
1C01C0
0F0780
07FF00
00FC00
ENDCHAR

STARTCHAR nine
ENCODING 57
SWIDTH 600 0
DWIDTH 30 0
BBX 22 33 6 -1
BITMAP
01F800
07FE00
0F0F00
1C0380
380180
3001C0
3000C0
6000E0
600060
600060
600060
600070
600070
3000F0
3001F0
3803B0
1C0730
0F0E30
07FC30
01F030
000030
000070
000060
000060
0000E0
0000C0
000180
000380
000700
001E00
60F800
7FF000
3F8000
ENDCHAR

STARTCHAR colon
ENCODING 58
SWIDTH 600 0
DWIDTH 30 0
BBX 10 22 10 -1
BITMAP
1E00
3F00
7F80
7F80
7F80
3F00
1E00
0000
0000
0000
0000
0000
0000
0000
0000
1E00
3F00
7F80
7F80
7F80
3F00
1E00
ENDCHAR

STARTCHAR semicolon
ENCODING 59
SWIDTH 600 0
DWIDTH 30 0
BBX 14 26 6 -5
BITMAP
01E0
03F0
07F8
07F8
07F8
03F0
01E0
0000
0000
0000
0000
0000
0000
0000
07E0
07C0
0FC0
0F80
0F80
1F00
1E00
1E00
3C00
3C00
3800
3000
ENDCHAR

STARTCHAR less
ENCODING 60
SWIDTH 600 0
DWIDTH 30 0
BBX 27 25 1 2
BITMAP
00000180
00000380
00000F00
00003C00
0000F000
0003E000
00078000
001E0000
00780000
01E00000
07C00000
0F000000
3C000000
1E000000
07800000
03E00000
00F00000
003C0000
000F0000
0007C000
0001F000
00007800
00001E00
00000780
00000380
ENDCHAR

STARTCHAR equal
ENCODING 61
SWIDTH 600 0
DWIDTH 30 0
BBX 28 9 1 10
BITMAP
3FFFFFC0
3FFFFFC0
00000000
00000000
00000000
00000000
00000000
3FFFFFC0
3FFFFFC0
ENDCHAR

STARTCHAR greater
ENCODING 62
SWIDTH 600 0
DWIDTH 30 0
BBX 27 25 2 2
BITMAP
30000000
3C000000
1E000000
07800000
01E00000
00F80000
003C0000
000F0000
0003C000
0000F000
00007C00
00001E00
00000780
00000F00
00003E00
0000F800
0001E000
00078000
001E0000
007C0000
00F00000
03C00000
0F000000
3C000000
38000000
ENDCHAR

STARTCHAR question
ENCODING 63
SWIDTH 600 0
DWIDTH 30 0
BBX 21 31 5 -1
BITMAP
03FC00
1FFF00
7E0780
700380
6001C0
6000C0
600060
000060
000060
000060
000060
0000E0
0001C0
000380
000F00
003E00
007800
006000
006000
006000
006000
000000
000000
000000
000000
000000
01F000
03F800
03F800
03F800
01F000
ENDCHAR

STARTCHAR at
ENCODING 64
SWIDTH 600 0
DWIDTH 30 0
BBX 22 35 4 -3
BITMAP
00FC00
03FF00
078380
0E01C0
1C00C0
180060
380060
300060
300060
700060
6000E0
600FE0
601F60
603860
606060
60E060
60C060
60C060
60C060
60C060
606060
607860
603FF0
600FF0
600000
700000
300000
300000
380000
180000
1C0000
0E00E0
0781C0
03FF80
00FE00
ENDCHAR

STARTCHAR A
ENCODING 65
SWIDTH 600 0
DWIDTH 30 0
BBX 32 29 -1 0
BITMAP
03FFC000
03FFC000
00066000
00066000
00066000
000C3000
000C3000
001C3800
00181800
00181800
00300C00
00300C00
00300C00
00600600
00600600
00600600
00C00300
00FFFF00
01FFFF80
01800180
01800180
030000C0
030000C0
030000C0
06000060
06000060
06000070
3FF007FE
3FF00FFC
ENDCHAR

STARTCHAR B
ENCODING 66
SWIDTH 600 0
DWIDTH 30 0
BBX 29 29 0 0
BITMAP
3FFFF000
3FFFFC00
03001E00
03000700
03000300
03000180
03000180
03000180
03000180
03000380
03000300
03000700
03001E00
03FFF800
03FFFE00
03000F00
03000380
030000C0
030000E0
03000060
03000060
03000060
03000060
03000060
030000C0
030001C0
03000780
3FFFFF00
3FFFFC00
ENDCHAR

STARTCHAR C
ENCODING 67
SWIDTH 600 0
DWIDTH 30 0
BBX 26 31 2 -1
BITMAP
003F8000
00FFE300
03C0FB00
07001F00
0E000F00
1C000700
18000300
38000300
30000300
30000000
60000000
60000000
60000000
60000000
60000000
60000000
60000000
60000000
60000000
60000000
70000000
30000000
30000000
18000000
1C000180
0C000300
07000700
03801E00
01E07C00
00FFF000
001FC000
ENDCHAR

STARTCHAR D
ENCODING 68
SWIDTH 600 0
DWIDTH 30 0
BBX 28 29 2 0
BITMAP
3FFFC000
3FFFF000
06007800
06001C00
06000E00
06000700
06000380
06000180
06000180
060000C0
060000C0
060000C0
060000C0
060000C0
060000C0
060000C0
060000C0
060000C0
060000C0
060000C0
06000180
06000180
06000300
06000700
06000E00
06001C00
06007800
3FFFF000
3FFFC000
ENDCHAR

STARTCHAR E
ENCODING 69
SWIDTH 600 0
DWIDTH 30 0
BBX 28 29 0 0
BITMAP
3FFFFF80
3FFFFF80
03000180
03000180
03000180
03000180
03000180
03000180
03000000
03000000
0300C000
0300C000
0300C000
03FFC000
03FFC000
0300C000
0300C000
0300C000
0300C000
03000000
030000C0
030000C0
030000C0
030000C0
030000C0
030000C0
030000C0
3FFFFFC0
3FFFFFC0
ENDCHAR

STARTCHAR F
ENCODING 70
SWIDTH 600 0
DWIDTH 30 0
BBX 28 29 2 0
BITMAP
3FFFFFC0
3FFFFFC0
030000C0
030000C0
030000C0
030000C0
030000C0
030000C0
03000000
03000000
0300C000
0300C000
0300C000
03FFC000
03FFC000
0300C000
0300C000
0300C000
0300C000
03000000
03000000
03000000
03000000
03000000
03000000
03000000
03000000
3FFF8000
3FFF8000
ENDCHAR

STARTCHAR G
ENCODING 71
SWIDTH 600 0
DWIDTH 30 0
BBX 28 31 2 -1
BITMAP
003FC000
00FFF300
03E07F00
07801F00
0E000700
1C000300
18000300
38000300
30000000
30000000
60000000
60000000
60000000
60000000
60000000
60000000
60000000
6003FFC0
6003FFC0
60000300
60000300
30000300
30000300
38000300
18000300
1C000300
0E000300
07800700
03E03F00
00FFFC00
003FE000
ENDCHAR

STARTCHAR H
ENCODING 72
SWIDTH 600 0
DWIDTH 30 0
BBX 27 29 2 0
BITMAP
3FE0FF80
3FE0FF80
06000C00
06000C00
06000C00
06000C00
06000C00
06000C00
06000C00
06000C00
06000C00
06000C00
06000C00
07FFFC00
07FFFC00
06000C00
06000C00
06000C00
06000C00
06000C00
06000C00
06000C00
06000C00
06000C00
06000C00
06000C00
06000C00
7FE0FFC0
7FE0FFC0
ENDCHAR

STARTCHAR I
ENCODING 73
SWIDTH 600 0
DWIDTH 30 0
BBX 22 29 4 0
BITMAP
3FFFF0
3FFFF0
003000
003000
003000
003000
003000
003000
003000
003000
003000
003000
003000
003000
003000
003000
003000
003000
003000
003000
003000
003000
003000
003000
003000
003000
003000
3FFFF0
3FFFF0
ENDCHAR

STARTCHAR J
ENCODING 74
SWIDTH 600 0
DWIDTH 30 0
BBX 28 30 3 -1
BITMAP
007FFFC0
007FFFC0
00003000
00003000
00003000
00003000
00003000
00003000
00003000
00003000
00003000
00003000
00003000
00003000
00003000
00003000
60003000
60003000
60003000
60003000
60003000
60003000
60003000
60007000
60006000
7000E000
3C01C000
0F078000
07FF0000
01FC0000
ENDCHAR

STARTCHAR K
ENCODING 75
SWIDTH 600 0
DWIDTH 30 0
BBX 29 29 1 0
BITMAP
3FF83FE0
3FF83FE0
03000700
03000E00
03001C00
03003800
03007000
0300E000
0301C000
03038000
03070000
030E0000
031C0000
033F0000
03E38000
03C1C000
0380E000
03007000
03003000
03001800
03001800
03000C00
03000C00
03000600
03000600
03000700
03000300
3FF803F0
3FF803F0
ENDCHAR

STARTCHAR L
ENCODING 76
SWIDTH 600 0
DWIDTH 30 0
BBX 28 29 1 0
BITMAP
3FFF0000
3FFF0000
00C00000
00C00000
00C00000
00C00000
00C00000
00C00000
00C00000
00C00000
00C00000
00C00000
00C00000
00C00000
00C00000
00C00000
00C00000
00C000C0
00C000C0
00C000C0
00C000C0
00C000C0
00C000C0
00C000C0
00C000C0
00C000C0
00C000C0
3FFFFFC0
3FFFFFC0
ENDCHAR

STARTCHAR M
ENCODING 77
SWIDTH 600 0
DWIDTH 30 0
BBX 33 29 -1 0
BITMAP
1F8000FE00
1F8000FC00
06C001B000
06C001B000
0660033000
0660033000
0670033000
0630063000
0630063000
06180C3000
06180C3000
060C1C3000
060C183000
060E183000
0606303000
0607303000
0603603000
0603603000
0601E03000
0601C03000
0600003000
0600003000
0600003000
0600003000
0600003000
0600003000
0600003000
3FF007FE00
3FF007FE00
ENDCHAR

STARTCHAR N
ENCODING 78
SWIDTH 600 0
DWIDTH 30 0
BBX 31 29 -1 0
BITMAP
3F801FF8
3FC01FF8
03C000C0
03E000C0
036000C0
033000C0
033000C0
031800C0
031C00C0
030C00C0
030E00C0
030600C0
030300C0
030380C0
030180C0
0301C0C0
0300C0C0
030060C0
030070C0
030030C0
030038C0
030018C0
03000CC0
03000CC0
030006C0
030007C0
030003C0
1FF801C0
1FF801C0
ENDCHAR

STARTCHAR O
ENCODING 79
SWIDTH 600 0
DWIDTH 30 0
BBX 28 31 2 -1
BITMAP
003F8000
00FFE000
01E0F800
03803C00
07000C00
0E000600
1C000700
18000300
38000180
30000180
30000180
700000C0
600000C0
600000C0
600000C0
600000C0
600000C0
600000C0
600000C0
700000C0
30000180
30000180
38000180
18000300
1C000700
0E000600
07000C00
03803C00
01E0F000
00FFE000
003F8000
ENDCHAR

STARTCHAR P
ENCODING 80
SWIDTH 600 0
DWIDTH 30 0
BBX 27 29 2 0
BITMAP
3FFFE000
3FFFF800
03003C00
03000E00
03000700
03000300
03000180
03000180
03000180
03000180
03000180
03000300
03000700
03000E00
03003C00
03FFF800
03FFC000
03000000
03000000
03000000
03000000
03000000
03000000
03000000
03000000
03000000
03000000
3FFF0000
3FFF0000
ENDCHAR

STARTCHAR Q
ENCODING 81
SWIDTH 600 0
DWIDTH 30 0
BBX 28 36 2 -6
BITMAP
003F8000
00FFE000
01E0F800
03803C00
07000C00
0E000600
1C000700
18000300
38000180
30000180
30000180
700000C0
600000C0
600000C0
600000C0
600000C0
600000C0
600000C0
600000C0
700000C0
30000180
30000180
38000180
18000300
1C000700
0E000600
07000E00
07803C00
01E0F800
00FFE000
003F8000
00380000
00700000
01FFC0C0
03FFFFC0
03C07F00
ENDCHAR

STARTCHAR R
ENCODING 82
SWIDTH 600 0
DWIDTH 30 0
BBX 31 29 0 0
BITMAP
3FFFE000
3FFFF800
03003C00
03000E00
03000700
03000380
03000180
03000180
03000180
03000180
03000300
03000700
03000E00
03007C00
03FFF000
03FFC000
0300E000
03007000
03003800
03001C00
03000E00
03000700
03000300
03000380
03000180
030000C0
030000E0
3FF8007C
3FF80078
ENDCHAR

STARTCHAR S
ENCODING 83
SWIDTH 600 0
DWIDTH 30 0
BBX 24 31 3 -1
BITMAP
00FE00
03FF98
0783F8
0E00F8
1C0038
180038
380018
300018
300018
300000
300000
180000
0C0000
070000
03F000
007F80
0003E0
000070
000018
000018
00000C
00000C
60000C
60000C
70000C
700018
780038
7C0070
6F81E0
63FFC0
00FE00
ENDCHAR

STARTCHAR T
ENCODING 84
SWIDTH 600 0
DWIDTH 30 0
BBX 26 29 3 0
BITMAP
7FFFFF00
7FFFFF00
60180300
60180300
60180300
60180300
60180300
60180300
60180300
60180300
00180000
00180000
00180000
00180000
00180000
00180000
00180000
00180000
00180000
00180000
00180000
00180000
00180000
00180000
00180000
00180000
00180000
07FFF000
07FFF000
ENDCHAR

STARTCHAR U
ENCODING 85
SWIDTH 600 0
DWIDTH 30 0
BBX 30 30 0 -1
BITMAP
3FF03FF0
3FF03FF0
06000180
06000180
06000180
06000180
06000180
06000180
06000180
06000180
06000180
06000180
06000180
06000180
06000180
06000180
06000180
06000180
06000180
06000180
06000180
06000180
07000180
03000300
03800700
01800600
00E01E00
00787C00
003FF000
000FC000
ENDCHAR

STARTCHAR V
ENCODING 86
SWIDTH 600 0
DWIDTH 30 0
BBX 32 29 -1 0
BITMAP
3FF007FC
3FF00FFC
06000070
06000060
06000060
030000C0
030000C0
038000C0
01800180
01800180
00C00380
00C00300
00C00300
00600600
00600600
00300600
00300C00
00300C00
00181C00
00181800
001C1800
000C3000
000C3000
00067000
00066000
00066000
0003E000
0003C000
0001C000
ENDCHAR

STARTCHAR W
ENCODING 87
SWIDTH 600 0
DWIDTH 30 0
BBX 32 29 -1 0
BITMAP
3FF00FFC
3FF00FFC
0C000030
0C000030
0C000030
0E000030
0603C060
0603C060
0603C060
0603C060
06066060
06066060
06066060
060E7060
070C3060
030C30C0
030C30C0
031818C0
031818C0
031818C0
03181CC0
03300CC0
03300CC0
03B00CC0
01F00780
01E00780
01E00780
01E00780
01C00380
ENDCHAR

STARTCHAR X
ENCODING 88
SWIDTH 600 0
DWIDTH 30 0
BBX 30 29 0 0
BITMAP
3FC01FE0
3FC01FE0
0E000380
07000700
03000700
01800E00
01C01C00
00E03800
00703800
00307000
0038E000
001DC000
000FC000
00078000
00078000
000F8000
000DC000
001CE000
00387000
00703000
00E01800
00E01C00
01C00E00
03800600
07000300
07000380
0E0001C0
3FE01FF0
3FE01FF0
ENDCHAR

STARTCHAR Y
ENCODING 89
SWIDTH 600 0
DWIDTH 30 0
BBX 29 29 0 0
BITMAP
3FC01FE0
3FC01FE0
06000300
07000700
03800600
01800C00
01C00C00
00E01800
00603800
00303000
00386000
0018E000
000CC000
000F8000
00078000
00030000
00030000
00030000
00030000
00030000
00030000
00030000
00030000
00030000
00030000
00030000
00030000
01FFFC00
01FFFC00
ENDCHAR

STARTCHAR Z
ENCODING 90
SWIDTH 600 0
DWIDTH 30 0
BBX 23 29 4 0
BITMAP
3FFFF0
3FFFF0
300030
300070
3000E0
3000C0
300180
300380
300700
000600
000E00
001C00
001800
003000
007000
00E000
00C000
01C000
038018
030018
060018
0E0018
0C0018
180018
380018
700018
600018
7FFFF8
7FFFF8
ENDCHAR

STARTCHAR bracketleft
ENCODING 91
SWIDTH 600 0
DWIDTH 30 0
BBX 11 37 13 -6
BITMAP
7F80
7F80
6000
6000
6000
6000
6000
6000
6000
6000
6000
6000
6000
6000
6000
6000
6000
6000
6000
6000
6000
6000
6000
6000
6000
6000
6000
6000
6000
6000
6000
6000
6000
6000
6000
7F80
7F80
ENDCHAR

STARTCHAR backslash
ENCODING 92
SWIDTH 600 0
DWIDTH 30 0
BBX 22 38 4 -4
BITMAP
200000
300000
300000
180000
180000
0C0000
0C0000
060000
060000
070000
030000
038000
018000
01C000
00C000
00C000
006000
006000
003000
003000
001800
001800
000C00
000C00
000E00
000600
000700
000300
000380
000180
000180
0000C0
0000C0
000060
000060
000030
000030
000010
ENDCHAR

STARTCHAR bracketright
ENCODING 93
SWIDTH 600 0
DWIDTH 30 0
BBX 12 37 6 -6
BITMAP
3FC0
3FC0
00C0
00C0
00C0
00C0
00C0
00C0
00C0
00C0
00C0
00C0
00C0
00C0
00C0
00C0
00C0
00C0
00C0
00C0
00C0
00C0
00C0
00C0
00C0
00C0
00C0
00C0
00C0
00C0
00C0
00C0
00C0
00C0
00C0
3FC0
3FC0
ENDCHAR

STARTCHAR asciicircum
ENCODING 94
SWIDTH 600 0
DWIDTH 30 0
BBX 22 13 4 18
BITMAP
003000
003000
007800
00FC00
01CE00
038700
030300
060180
0E01C0
1C00E0
180070
300030
300010
ENDCHAR

STARTCHAR underscore
ENCODING 95
SWIDTH 600 0
DWIDTH 30 0
BBX 34 3 -2 -6
BITMAP
3FFFFFFF00
7FFFFFFF80
3FFFFFFF00
ENDCHAR

STARTCHAR quoteleft
ENCODING 96
SWIDTH 600 0
DWIDTH 30 0
BBX 13 15 11 16
BITMAP
7F00
3F00
1F80
1F80
0F80
0FC0
07C0
07C0
03C0
03E0
01E0
01E0
00F0
00F0
0060
ENDCHAR

STARTCHAR a
ENCODING 97
SWIDTH 600 0
DWIDTH 30 0
BBX 26 23 3 -1
BITMAP
00FE0000
07FF8000
1F81E000
08006000
00003000
00003000
00003000
00003000
00003000
01FFB000
07FFF000
1F00F000
3C003000
30003000
70003000
60003000
60003000
60007000
7000F000
3003F000
1C0F3F00
0FFE3F00
03F00000
ENDCHAR

STARTCHAR b
ENCODING 98
SWIDTH 600 0
DWIDTH 30 0
BBX 30 32 -1 -1
BITMAP
3F000000
3F000000
03000000
03000000
03000000
03000000
03000000
03000000
03000000
0303F800
030FFE00
033C0F00
03700380
03E001C0
03C000E0
03800060
03800060
03800070
03000030
03000030
03000030
03000030
03000030
03800030
03800060
03C00060
03C000C0
03E001C0
03700380
3F3E0F00
3F0FFC00
0003F000
ENDCHAR

STARTCHAR c
ENCODING 99
SWIDTH 600 0
DWIDTH 30 0
BBX 25 23 3 -1
BITMAP
007F0000
03FFCC00
0781FC00
0E003C00
1C001C00
18000C00
30000C00
30000C00
60000000
60000000
60000000
60000000
60000000
60000000
60000000
30000000
30000000
18000600
1C000E00
0E003C00
0780F800
03FFE000
007F0000
ENDCHAR

STARTCHAR d
ENCODING 100
SWIDTH 600 0
DWIDTH 30 0
BBX 29 32 2 -1
BITMAP
00007E00
00007E00
00000600
00000600
00000600
00000600
00000600
00000600
00000600
007E0600
03FF8600
0781E600
0E007600
1C003E00
18001E00
30000E00
30000E00
70000600
60000600
60000600
60000600
60000600
60000600
70000600
30000E00
30000E00
18001E00
1C003E00
0E007600
0781E7E0
01FF87E0
007E0000
ENDCHAR

STARTCHAR e
ENCODING 101
SWIDTH 600 0
DWIDTH 30 0
BBX 27 23 1 -1
BITMAP
003F8000
00FFF000
03C0F800
07001C00
0E000E00
0C000700
18000300
18000380
30000180
30000180
3FFFFF80
3FFFFF80
30000000
30000000
38000000
18000000
1C000000
0E000000
06000180
07800780
01E03F00
00FFFC00
001FE000
ENDCHAR

STARTCHAR f
ENCODING 102
SWIDTH 600 0
DWIDTH 30 0
BBX 25 31 4 0
BITMAP
0007FC00
001FFF00
00380600
00600000
00E00000
00C00000
00C00000
00C00000
00C00000
00C00000
3FFFF800
3FFFF800
00C00000
00C00000
00C00000
00C00000
00C00000
00C00000
00C00000
00C00000
00C00000
00C00000
00C00000
00C00000
00C00000
00C00000
00C00000
00C00000
00C00000
3FFFF000
3FFFF000
ENDCHAR

STARTCHAR g
ENCODING 103
SWIDTH 600 0
DWIDTH 30 0
BBX 28 31 2 -9
BITMAP
00FE0000
03FF8FC0
0783CFC0
0E00EC00
1C003C00
38003C00
30001C00
30001C00
60000C00
60000C00
60000C00
60000C00
60000C00
30001C00
30001C00
38003C00
1C007C00
0E00EC00
0783CC00
03FF8C00
00FE0C00
00000C00
00000C00
00000C00
00000C00
00001C00
00001800
00003800
0000F000
01FFC000
01FF0000
ENDCHAR

STARTCHAR h
ENCODING 104
SWIDTH 600 0
DWIDTH 30 0
BBX 29 31 1 0
BITMAP
3F000000
3F000000
03000000
03000000
03000000
03000000
03000000
03000000
03000000
030FE000
031FF000
03783800
03E00C00
03C00E00
03800600
03000600
03000600
03000600
03000600
03000600
03000600
03000600
03000600
03000600
03000600
03000600
03000600
03000600
03000600
3FE03FE0
3FE03FE0
ENDCHAR

STARTCHAR i
ENCODING 105
SWIDTH 600 0
DWIDTH 30 0
BBX 24 31 3 0
BITMAP
003800
003800
003800
003800
003800
000000
000000
000000
000000
000000
0FF800
0FF800
001800
001800
001800
001800
001800
001800
001800
001800
001800
001800
001800
001800
001800
001800
001800
001800
001800
3FFFFC
3FFFFC
ENDCHAR

STARTCHAR j
ENCODING 106
SWIDTH 600 0
DWIDTH 30 0
BBX 19 40 3 -9
BITMAP
000E00
000E00
000E00
000E00
000E00
000000
000000
000000
000000
000000
3FFF80
3FFF80
000180
000180
000180
000180
000180
000180
000180
000180
000180
000180
000180
000180
000180
000180
000180
000180
000180
000180
000180
000180
000180
000180
000180
000300
000700
000E00
3FFC00
3FF000
ENDCHAR

STARTCHAR k
ENCODING 107
SWIDTH 600 0
DWIDTH 30 0
BBX 27 31 3 0
BITMAP
3F000000
3F000000
03000000
03000000
03000000
03000000
03000000
03000000
03000000
03000000
0303FE00
0303FE00
0300E000
0301C000
03038000
030E0000
031C0000
03380000
03700000
03F00000
03D80000
038C0000
03060000
03030000
03018000
0301C000
0300E000
03007000
03003800
3F00FF80
3F00FF80
ENDCHAR

STARTCHAR l
ENCODING 108
SWIDTH 600 0
DWIDTH 30 0
BBX 24 31 3 0
BITMAP
0FF800
0FF800
001800
001800
001800
001800
001800
001800
001800
001800
001800
001800
001800
001800
001800
001800
001800
001800
001800
001800
001800
001800
001800
001800
001800
001800
001800
001800
001800
3FFFFC
3FFFFC
ENDCHAR

STARTCHAR m
ENCODING 109
SWIDTH 600 0
DWIDTH 30 0
BBX 33 22 -1 0
BITMAP
003E0F8000
3EFF1FC000
3FE3B8E000
0781F07000
0701E03000
0701C03000
0600C03000
0600C03000
0600C03000
0600C03000
0600C03000
0600C03000
0600C03000
0600C03000
0600C03000
0600C03000
0600C03000
0600C03000
0600C03000
0600C03000
3FC0F83E00
3FC0F83E00
ENDCHAR

STARTCHAR n
ENCODING 110
SWIDTH 600 0
DWIDTH 30 0
BBX 28 22 1 0
BITMAP
000FC000
1F1FF000
1F783800
03E01C00
03C00E00
03800600
03000600
03000600
03000600
03000600
03000600
03000600
03000600
03000600
03000600
03000600
03000600
03000600
03000600
03000600
3FE03FC0
3FE03FC0
ENDCHAR

STARTCHAR o
ENCODING 111
SWIDTH 600 0
DWIDTH 30 0
BBX 26 23 2 -1
BITMAP
007F0000
01FFC000
07C1F000
0E003800
1C001C00
18000C00
38000600
30000600
70000300
60000300
60000300
60000300
60000300
60000300
70000700
30000600
38000600
18000C00
0C001C00
0F003800
03C1F000
01FFC000
007F0000
ENDCHAR

STARTCHAR p
ENCODING 112
SWIDTH 600 0
DWIDTH 30 0
BBX 30 31 -1 -9
BITMAP
0007F000
3F1FFE00
3F3C0F00
03700380
03E001C0
03C000E0
03800060
03800070
03000030
03000030
03000030
03000030
03000030
03800070
03800060
03C000E0
03E001C0
03700380
033C0F00
031FFE00
0303F000
03000000
03000000
03000000
03000000
03000000
03000000
03000000
03000000
3FFC0000
3FFC0000
ENDCHAR

STARTCHAR q
ENCODING 113
SWIDTH 600 0
DWIDTH 30 0
BBX 29 31 2 -9
BITMAP
007F0000
03FFC7E0
0781E7E0
0E007600
1C003E00
38001E00
30000E00
70000E00
60000600
60000600
60000600
60000600
60000600
70000E00
30000E00
38001E00
1C003E00
0E007600
0781E600
03FFC600
007F0600
00000600
00000600
00000600
00000600
00000600
00000600
00000600
00000600
0001FFE0
0001FFE0
ENDCHAR

STARTCHAR r
ENCODING 114
SWIDTH 600 0
DWIDTH 30 0
BBX 26 22 3 0
BITMAP
00007C00
1FC1FF00
1FC3C700
00C70100
00DE0000
00F80000
00F00000
00E00000
00C00000
00C00000
00C00000
00C00000
00C00000
00C00000
00C00000
00C00000
00C00000
00C00000
00C00000
00C00000
3FFFF000
3FFFF000
ENDCHAR

STARTCHAR s
ENCODING 115
SWIDTH 600 0
DWIDTH 30 0
BBX 23 23 4 -1
BITMAP
01FE00
07FFB0
1F03F0
1C00F0
380070
300030
300030
380000
1C0000
0FE000
03FF00
001FC0
0000F0
000030
000038
600018
600018
600018
700030
780070
7F03E0
67FFC0
01FE00
ENDCHAR

STARTCHAR t
ENCODING 116
SWIDTH 600 0
DWIDTH 30 0
BBX 26 29 3 -1
BITMAP
01800000
01800000
01800000
01800000
01800000
01800000
01800000
3FFFF800
3FFFF800
01800000
01800000
01800000
01800000
01800000
01800000
01800000
01800000
01800000
01800000
01800000
01800000
01800000
01800000
01800000
01800000
00C00380
00F01F00
007FFC00
001FE000
ENDCHAR

STARTCHAR u
ENCODING 117
SWIDTH 600 0
DWIDTH 30 0
BBX 29 22 0 -1
BITMAP
3F007F00
3F007F00
03000300
03000300
03000300
03000300
03000300
03000300
03000300
03000300
03000300
03000300
03000300
03000300
03000300
03000300
03000700
03800F00
01803F00
01E0F3E0
00FFE3E0
003F0000
ENDCHAR

STARTCHAR v
ENCODING 118
SWIDTH 600 0
DWIDTH 30 0
BBX 30 21 0 0
BITMAP
3FF03FF0
3FF03FF0
06000180
03000300
03000300
03800700
01800600
01C00600
00C00C00
00C00C00
00601800
00601800
00303800
00303000
00383000
00186000
001C6000
000CC000
000CC000
00078000
00078000
ENDCHAR

STARTCHAR w
ENCODING 119
SWIDTH 600 0
DWIDTH 30 0
BBX 31 21 0 0
BITMAP
3FC007F8
3FC007F8
0C000060
0E0000C0
060000C0
060380C0
060380C0
0603C0C0
0306C180
0306C180
0306E180
030C6180
038C6180
018C7300
01983300
01983300
01F81B00
00F01E00
00F01E00
00E00E00
00E00E00
ENDCHAR

STARTCHAR x
ENCODING 120
SWIDTH 600 0
DWIDTH 30 0
BBX 29 21 1 0
BITMAP
1FE03FC0
1FE03FC0
07000700
03800E00
01C01C00
00E03800
00707000
0038E000
001D8000
00070000
00070000
000DC000
0038E000
00707000
00E03800
01C01C00
03800E00
07000700
0E000380
3FE03FE0
3FE03FE0
ENDCHAR

STARTCHAR y
ENCODING 121
SWIDTH 600 0
DWIDTH 30 0
BBX 29 30 2 -9
BITMAP
3FC01FE0
3FC01FE0
0C000180
06000300
06000300
03000600
03000600
01800C00
01800C00
00C01800
00C01800
00603000
00603000
00306000
00386000
0018C000
001CC000
000D8000
000F8000
00070000
00070000
00060000
00060000
000C0000
000C0000
00180000
00180000
00300000
3FFF0000
3FFF0000
ENDCHAR

STARTCHAR z
ENCODING 122
SWIDTH 600 0
DWIDTH 30 0
BBX 22 21 4 0
BITMAP
3FFFF0
3FFFF0
3000E0
3001C0
300380
300300
000600
000C00
001C00
003800
007000
00E000
01C000
018000
030000
060030
0E0030
1C0030
380030
3FFFF0
3FFFF0
ENDCHAR

STARTCHAR braceleft
ENCODING 123
SWIDTH 600 0
DWIDTH 30 0
BBX 14 37 8 -6
BITMAP
0070
00F0
01C0
0380
0300
0300
0300
0300
0300
0300
0300
0300
0300
0300
0300
0300
0700
1E00
3C00
1E00
0700
0300
0300
0300
0300
0300
0300
0300
0300
0300
0300
0300
0300
0380
01C0
00F0
0070
ENDCHAR

STARTCHAR bar
ENCODING 124
SWIDTH 600 0
DWIDTH 30 0
BBX 5 37 13 -6
BITMAP
60
60
60
60
60
60
60
60
60
60
60
60
60
60
60
60
60
60
60
60
60
60
60
60
60
60
60
60
60
60
60
60
60
60
60
60
60
ENDCHAR

STARTCHAR braceright
ENCODING 125
SWIDTH 600 0
DWIDTH 30 0
BBX 14 37 8 -6
BITMAP
3800
3E00
0E00
0700
0300
0300
0300
0300
0300
0300
0300
0300
0300
0300
0300
0300
0380
01E0
00F0
01F0
0380
0300
0300
0300
0300
0300
0300
0300
0300
0300
0300
0300
0300
0300
0E00
3E00
3800
ENDCHAR

STARTCHAR asciitilde
ENCODING 126
SWIDTH 600 0
DWIDTH 30 0
BBX 24 7 3 11
BITMAP
03C000
0FE000
1C700C
381C1C
300E38
0007F0
0001C0
ENDCHAR

STARTCHAR space
ENCODING 160
SWIDTH 600 0
DWIDTH 34 0
BBX 0 0 0 0
BITMAP
ENDCHAR

STARTCHAR Aogonek
ENCODING 161
SWIDTH 600 0
DWIDTH 30 0
BBX 34 36 -1 -7
BITMAP
03FFC00000
03FFC00000
0006C00000
0006600000
000C600000
000C700000
000C300000
0018300000
0018380000
0038180000
0030180000
00300C0000
00600C0000
00600C0000
0060060000
00C0060000
00C0030000
00FFFF0000
01FFFF0000
0180018000
0380018000
0300018000
030000C000
060000C000
060000E000
0600006000
0C00006000
7FE00FFC00
7FE00FFC00
0000006000
0000004000
000000C000
000000C000
000000E100
0000007F00
0000001C00
ENDCHAR

STARTCHAR afii240
ENCODING 162
SWIDTH 600 0
DWIDTH 30 0
BBX 26 21 2 0
BITMAP
3FF3FE00
3FF3FE00
0300E000
0301C000
03038000
030E0000
031C0000
03380000
03700000
03FC0000
03DE0000
03870000
03038000
0301C000
0300C000
03006000
03007000
03003000
03003000
3FF01F00
3FF01F00
ENDCHAR

STARTCHAR Rcommaaccent
ENCODING 163
SWIDTH 600 0
DWIDTH 30 0
BBX 31 42 0 -13
BITMAP
3FFFE000
3FFFF800
03003C00
03000E00
03000700
03000380
03000180
03000180
03000180
03000180
03000300
03000700
03000E00
03007C00
03FFF000
03FFC000
0301E000
03007000
03003800
03001C00
03000E00
03000700
03000300
03000380
03000180
030000C0
030000E0
3FF8007C
3FF80078
00000000
00000000
00000000
00070000
000F8000
000F8000
000F8000
00078000
00038000
00030000
00060000
000E0000
00080000
ENDCHAR

STARTCHAR currency
ENCODING 164
SWIDTH 600 0
DWIDTH 30 0
BBX 23 21 4 4
BITMAP
200008
70001C
387E38
1DFF70
0F83E0
0600C0
0C0060
0C0070
180030
180030
180030
180030
180030
0C0070
0E0060
0700C0
0F83E0
1DFF70
387C38
70001C
200008
ENDCHAR

STARTCHAR Itilde
ENCODING 165
SWIDTH 600 0
DWIDTH 30 0
BBX 22 36 4 0
BITMAP
03C000
0FE060
0C78C0
181FC0
000F00
000000
000000
3FFFF0
3FFFF0
003000
003000
003000
003000
003000
003000
003000
003000
003000
003000
003000
003000
003000
003000
003000
003000
003000
003000
003000
003000
003000
003000
003000
003000
003000
3FFFF0
3FFFF0
ENDCHAR

STARTCHAR Lcommaaccent
ENCODING 166
SWIDTH 600 0
DWIDTH 30 0
BBX 28 42 1 -13
BITMAP
3FFF0000
3FFF0000
00C00000
00C00000
00C00000
00C00000
00C00000
00C00000
00C00000
00C00000
00C00000
00C00000
00C00000
00C00000
00C00000
00C00000
00C00000
00C000C0
00C000C0
00C000C0
00C000C0
00C000C0
00C000C0
00C000C0
00C000C0
00C000C0
00C000C0
3FFFFFC0
3FFFFFC0
00000000
00000000
00000000
00070000
000F8000
000F8000
000F8000
00078000
00018000
00030000
00060000
000E0000
00080000
ENDCHAR

STARTCHAR section
ENCODING 167
SWIDTH 600 0
DWIDTH 30 0
BBX 26 34 2 -3
BITMAP
003FFC00
007FFC00
00C00400
01800400
01000400
03000400
03000400
03000000
01800000
0FC00000
3C600000
20300000
601C0000
60070000
3001C000
3800E000
1C003800
06000C00
03800600
00E00300
00700180
001C0180
00070180
00038300
0000FE00
00007800
00002000
00003000
08003000
08003000
08002000
08006000
0801C000
0FFF8000
ENDCHAR

STARTCHAR hungarumlaut
ENCODING 168
SWIDTH 600 0
DWIDTH 30 0
BBX 18 7 6 25
BITMAP
018300
038700
070E00
0E1C00
1C3800
387000
306000
ENDCHAR

STARTCHAR Scaron
ENCODING 169
SWIDTH 600 0
DWIDTH 30 0
BBX 24 39 3 -1
BITMAP
0C0060
0F01E0
0783C0
01C700
00EE00
007C00
001000
000000
00FE00
03FF98
0F83F8
0E00F8
1C0038
380038
380018
300018
300018
300000
300000
180000
0C0000
070000
00F000
000F80
0000E0
000030
000018
000008
00000C
00000C
60000C
60000C
60000C
700018
780038
7C0070
6F81E0
67FFC0
00FE00
ENDCHAR

STARTCHAR Emacron
ENCODING 170
SWIDTH 600 0
DWIDTH 30 0
BBX 28 35 0 0
BITMAP
01FFF800
01FFF800
00000000
00000000
00000000
00000000
3FFFFF80
3FFFFF80
03000180
03000180
03000180
03000180
03000180
03000180
03000000
03000000
0300C000
0300C000
0300C000
03FFC000
03FFC000
0300C000
0300C000
0300C000
0300C000
03000000
030000C0
030000C0
030000C0
030000C0
030000C0
030000C0
030000C0
3FFFFFC0
3FFFFFC0
ENDCHAR

STARTCHAR Gcommaaccent
ENCODING 171
SWIDTH 600 0
DWIDTH 30 0
BBX 28 43 2 -13
BITMAP
003FC000
00FFF300
03C07F00
07001F00
0E000700
1C000300
18000300
38000300
30000000
30000000
60000000
60000000
60000000
60000000
60000000
60000000
60000000
6003FFC0
6007FFC0
60000300
60000300
30000300
30000300
38000300
18000300
1C000300
0E000300
07800700
03E03F00
00FFFC00
003FE000
00000000
00000000
000E0000
001F0000
001F0000
001F0000
000F0000
00070000
00060000
000C0000
001C0000
00100000
ENDCHAR

STARTCHAR afii237
ENCODING 172
SWIDTH 600 0
DWIDTH 30 0
BBX 26 29 3 0
BITMAP
7FFFFF00
7FFFFF00
60180300
60180300
60180300
60180300
60180300
60180300
60180300
60180300
60180300
00180000
00180000
00180000
1FFFFC00
1FFFFC00
00180000
00180000
00180000
00180000
00180000
00180000
00180000
00180000
00180000
00180000
00180000
07FFF000
07FFF000
ENDCHAR

STARTCHAR hyphen
ENCODING 173
SWIDTH 600 0
DWIDTH 30 0
BBX 24 3 3 13
BITMAP
3FFFFE
3FFFFE
3FFFFE
ENDCHAR

STARTCHAR Zcaron
ENCODING 174
SWIDTH 600 0
DWIDTH 30 0
BBX 23 39 4 0
BITMAP
080040
0E00C0
0F03C0
038700
01EE00
00FC00
003000
000000
000000
000000
3FFFF0
3FFFF0
300030
300070
3000E0
3000C0
300180
300380
300700
000600
000E00
001C00
001800
003000
007000
00E000
00C000
01C000
038018
030018
060018
0E0018
0C0018
180018
380018
700018
600018
7FFFF8
7FFFF8
ENDCHAR

STARTCHAR macron
ENCODING 175
SWIDTH 600 0
DWIDTH 30 0
BBX 18 2 6 26
BITMAP
3FFF00
3FFF00
ENDCHAR

STARTCHAR degree
ENCODING 176
SWIDTH 600 0
DWIDTH 30 0
BBX 16 14 7 23
BITMAP
03C0
0FF0
1FF8
3C3C
381C
700E
700E
700E
700E
381C
3C3C
1FF8
0FF0
03C0
ENDCHAR

STARTCHAR aogonek
ENCODING 177
SWIDTH 600 0
DWIDTH 30 0
BBX 27 29 3 -7
BITMAP
00FE0000
0FFF8000
1F81E000
08006000
00003000
00003000
00003000
00003000
00003000
01FFF000
07FFF000
1F007000
3C003000
30003000
70003000
60003000
60003000
60007000
7000F000
3003F000
1C0F3F00
0FFE3F00
03F03000
00002000
00006000
00006000
00002080
00003F80
00000E00
ENDCHAR

STARTCHAR ogonek
ENCODING 178
SWIDTH 600 0
DWIDTH 30 0
BBX 10 8 10 -7
BITMAP
1C00
3800
2000
6000
6000
2100
3F00
0E00
ENDCHAR

STARTCHAR rcommaaccent
ENCODING 179
SWIDTH 600 0
DWIDTH 30 0
BBX 26 35 3 -13
BITMAP
00007C00
1FC1FF00
1FC3C700
00C70100
00DE0000
00F80000
00F00000
00E00000
00C00000
00C00000
00C00000
00C00000
00C00000
00C00000
00C00000
00C00000
00C00000
00C00000
00C00000
00C00000
3FFFF000
3FFFF000
00000000
00000000
00000000
001C0000
003E0000
003E0000
003E0000
001E0000
000E0000
000C0000
00180000
00380000
00200000
ENDCHAR

STARTCHAR acute
ENCODING 180
SWIDTH 600 0
DWIDTH 30 0
BBX 12 7 9 25
BITMAP
00C0
01C0
0780
0E00
1C00
3800
3000
ENDCHAR

STARTCHAR itilde
ENCODING 181
SWIDTH 600 0
DWIDTH 30 0
BBX 24 29 3 0
BITMAP
03C000
0FE040
1C79C0
183F80
000F00
000000
000000
000000
0FF800
0FF800
001800
001800
001800
001800
001800
001800
001800
001800
001800
001800
001800
001800
001800
001800
001800
001800
001800
3FFFFC
3FFFFC
ENDCHAR

STARTCHAR lcommaaccent
ENCODING 182
SWIDTH 600 0
DWIDTH 30 0
BBX 24 44 3 -13
BITMAP
0FF800
0FF800
001800
001800
001800
001800
001800
001800
001800
001800
001800
001800
001800
001800
001800
001800
001800
001800
001800
001800
001800
001800
001800
001800
001800
001800
001800
001800
001800
3FFFFC
3FFFFC
000000
000000
000000
003800
007C00
007C00
007C00
003C00
001C00
001800
003000
007000
004000
ENDCHAR

STARTCHAR caron
ENCODING 183
SWIDTH 600 0
DWIDTH 30 0
BBX 18 7 6 25
BITMAP
200100
380700
1C0E00
0E1C00
07B800
01F000
00C000
ENDCHAR

STARTCHAR commaaccent
ENCODING 184
SWIDTH 600 0
DWIDTH 30 0
BBX 9 10 10 -13
BITMAP
1C00
3E00
3E00
3E00
1E00
0E00
0C00
1800
3800
2000
ENDCHAR

STARTCHAR scaron
ENCODING 185
SWIDTH 600 0
DWIDTH 30 0
BBX 23 33 4 -1
BITMAP
080040
0E01C0
070380
038700
01FE00
007800
003000
000000
000000
000000
01FE00
07FFB0
1F03F0
1C00F0
380070
300030
300030
380000
1C0000
0FE000
01FF00
0007C0
0000F0
000030
000018
600018
600018
600018
700030
780070
7F01E0
6FFFC0
01FE00
ENDCHAR

STARTCHAR emacron
ENCODING 186
SWIDTH 600 0
DWIDTH 30 0
BBX 27 29 1 -1
BITMAP
03FFF800
03FFF800
00000000
00000000
00000000
00000000
003F8000
00FFE000
03E07800
07001C00
0E000E00
0C000700
18000300
18000380
30000180
30000180
3FFFFF80
3FFFFF80
30000000
30000000
38000000
18000000
1C000000
0E000000
06000180
07800780
01E03F00
00FFFC00
001FE000
ENDCHAR

STARTCHAR gcommaaccent
ENCODING 187
SWIDTH 600 0
DWIDTH 30 0
BBX 28 44 2 -9
BITMAP
00020000
000E0000
000C0000
00180000
00180000
003C0000
003E0000
003E0000
003E0000
001C0000
00000000
00000000
00000000
00FE0000
03FF8FC0
0783CFC0
0E00EC00
1C003C00
38003C00
30001C00
30001C00
60000C00
60000C00
60000C00
60000C00
60000C00
30001C00
30001C00
38003C00
1C003C00
0E00EC00
0783CC00
03FF8C00
00FE0C00
00000C00
00000C00
00000C00
00000C00
00001C00
00001800
00003800
0000F000
01FFC000
01FF8000
ENDCHAR

STARTCHAR afii253
ENCODING 188
SWIDTH 600 0
DWIDTH 30 0
BBX 26 29 3 -1
BITMAP
01800000
01800000
01800000
01800000
01800000
01800000
01800000
3FFFF800
3FFFF800
01800000
01800000
01800000
01800000
01800000
01800000
3FFFC000
3FFFC000
01800000
01800000
01800000
01800000
01800000
01800000
01800000
01800000
00C00380
00F01F00
007FFC00
000FE000
ENDCHAR

STARTCHAR afii238
ENCODING 189
SWIDTH 600 0
DWIDTH 30 0
BBX 28 31 2 -1
BITMAP
0003F000
3E0FFC00
3E3E0E00
06700700
06E00380
07C00180
07800180
070000C0
060000C0
060000C0
060000C0
060000C0
060000C0
060000C0
060000C0
060000C0
060000C0
060000C0
060000C0
060000C0
060000C0
060000C0
060000C0
060000C0
060000C0
06000180
06000180
06000380
3FC38700
3FC1FE00
0000FC00
ENDCHAR

STARTCHAR zcaron
ENCODING 190
SWIDTH 600 0
DWIDTH 30 0
BBX 22 31 4 0
BITMAP
0C01C0
0F0380
038700
01DE00
00F800
007000
000000
000000
000000
000000
3FFFF0
3FFFF0
3000E0
3001C0
300380
300300
000600
000C00
001C00
003800
007000
00E000
01C000
018000
030000
060030
0E0030
1C0030
380030
3FFFF0
3FFFF0
ENDCHAR

STARTCHAR afii254
ENCODING 191
SWIDTH 600 0
DWIDTH 30 0
BBX 25 31 1 -9
BITMAP
000FC000
3E3FF000
3EF03800
07C01C00
07800E00
07000600
06000600
06000600
06000600
06000600
06000600
06000600
06000600
06000600
06000600
06000600
06000600
06000600
06000600
06000600
3FE00600
3FE00600
00000600
00000600
00000600
00000600
00000C00
00001C00
00003800
003FF000
003FC000
ENDCHAR

STARTCHAR Amacron
ENCODING 192
SWIDTH 600 0
DWIDTH 30 0
BBX 32 35 -1 0
BITMAP
007FFE00
007FFE00
00000000
00000000
00000000
00000000
03FFC000
03FFC000
00066000
00066000
00066000
000C3000
000C3000
001C3800
00181800
00181800
00300C00
00300C00
00300C00
00600600
00600600
00600600
00C00300
00FFFF00
01FFFF80
01800180
01800180
030000C0
030000C0
030000C0
06000060
06000060
06000070
3FF007FE
3FF00FFC
ENDCHAR

STARTCHAR Aacute
ENCODING 193
SWIDTH 600 0
DWIDTH 30 0
BBX 32 39 -1 0
BITMAP
00003000
00007000
0001E000
00038000
00070000
000E0000
000C0000
00000000
00000000
00000000
03FFC000
03FFC000
00066000
00066000
00066000
000C3000
000C3000
001C3800
00181800
00181800
00300C00
00300C00
00300C00
00600600
00600600
00600600
00C00300
00FFFF00
01FFFF80
01800180
01800180
030000C0
030000C0
030000C0
06000060
06000060
06000070
3FF007FE
3FF00FFC
ENDCHAR

STARTCHAR Acircumflex
ENCODING 194
SWIDTH 600 0
DWIDTH 30 0
BBX 32 39 -1 0
BITMAP
00008000
0003C000
0007E000
000E7800
003C3C00
00700E00
00600600
00000000
00000000
00000000
03FFC000
03FFC000
00066000
00066000
00066000
000C3000
000C3000
001C3800
00181800
00181800
00300C00
00300C00
00300C00
00600600
00600600
00600600
00C00300
00FFFF00
01FFFF80
01800180
01800180
030000C0
030000C0
030000C0
06000060
06000060
06000070
3FF007FE
3FF00FFC
ENDCHAR

STARTCHAR Atilde
ENCODING 195
SWIDTH 600 0
DWIDTH 30 0
BBX 32 36 -1 0
BITMAP
001E0000
007F0300
0063C700
00C0FE00
00007800
00000000
00000000
03FFC000
03FFC000
00066000
00066000
00066000
000C3000
000C3000
001C3800
00181800
00181800
00300C00
00300C00
00300C00
00600600
00600600
00600600
00C00300
00FFFF00
01FFFF80
01800180
01800180
030000C0
030000C0
030000C0
06000060
06000060
06000070
3FF007FE
3FF00FFC
ENDCHAR

STARTCHAR Adieresis
ENCODING 196
SWIDTH 600 0
DWIDTH 30 0
BBX 33 37 -1 0
BITMAP
0030060000
00780F0000
00780F0000
0030060000
0000000000
0000000000
0000000000
0000000000
03FFC00000
03FFE00000
0003600000
0006700000
0006300000
0006300000
000C180000
000C180000
001C180000
00180C0000
00180C0000
00300E0000
0030060000
0030060000
0060030000
0060030000
00C0030000
00FFFF8000
00FFFF8000
018000C000
018000C000
018000C000
0300006000
0300006000
0300007000
0600003000
0600003000
3FF007FE00
3FF007FE00
ENDCHAR

STARTCHAR Aring
ENCODING 197
SWIDTH 600 0
DWIDTH 30 0
BBX 31 40 0 0
BITMAP
00038000
0007E000
000C6000
00183000
00183000
00183000
000C6000
0007C000
00018000
00000000
00000000
03FF8000
03FFC000
0006C000
0006C000
000C6000
000C6000
00187000
00183000
00183000
00301800
00301800
00301800
00600C00
00600C00
00600C00
00C00600
00C00600
01FFFF00
01FFFF00
01800300
03000180
03000180
03000180
060000C0
060000C0
060000E0
0C000060
7FE00FFC
7FE00FFC
ENDCHAR

STARTCHAR AE
ENCODING 198
SWIDTH 600 0
DWIDTH 30 0
BBX 32 29 -1 0
BITMAP
01FFFFF8
01FFFFF8
0018C018
0018C018
0018C018
0030C018
0030C018
0030C018
0070C018
0060C000
0060C300
0060C300
00C0C300
00C0FF00
00C0FF00
00C0C300
0180C300
01FFC300
01FFC000
0300C000
0300C000
0300C00C
0300C00C
0600C00C
0600C00C
0600C00C
0E00C00C
7F8FFFFC
7F8FFFFC
ENDCHAR

STARTCHAR Iogonek
ENCODING 199
SWIDTH 600 0
DWIDTH 30 0
BBX 22 36 4 -7
BITMAP
3FFFF0
3FFFF0
003000
003000
003000
003000
003000
003000
003000
003000
003000
003000
003000
003000
003000
003000
003000
003000
003000
003000
003000
003000
003000
003000
003000
003000
003000
3FFFF0
3FFFF0
006000
00C000
00C000
00C000
00C100
007F00
001C00
ENDCHAR

STARTCHAR Ccaron
ENCODING 200
SWIDTH 600 0
DWIDTH 30 0
BBX 26 40 2 -1
BITMAP
02001000
03807000
01C0E000
00E1C000
007F8000
001E0000
000C0000
00000000
00000000
003F8000
00FFE300
03C0FB00
07001F00
0E000F00
1C000700
18000300
38000300
30000300
30000000
60000000
60000000
60000000
60000000
60000000
60000000
60000000
60000000
60000000
60000000
70000000
30000000
30000000
18000000
1C000180
0C000300
07000700
03801E00
01E07800
00FFF000
001F8000
ENDCHAR

STARTCHAR Eacute
ENCODING 201
SWIDTH 600 0
DWIDTH 30 0
BBX 28 39 0 0
BITMAP
0000E000
0001C000
00038000
000F0000
001E0000
00380000
00300000
00000000
00000000
00000000
3FFFFF80
3FFFFF80
03000180
03000180
03000180
03000180
03000180
03000180
03000000
03000000
0300C000
0300C000
0300C000
03FFC000
03FFC000
0300C000
0300C000
0300C000
0300C000
03000000
030000C0
030000C0
030000C0
030000C0
030000C0
030000C0
030000C0
3FFFFFC0
3FFFFFC0
ENDCHAR

STARTCHAR Eogonek
ENCODING 202
SWIDTH 600 0
DWIDTH 30 0
BBX 30 36 0 -7
BITMAP
3FFFFF80
3FFFFF80
03000180
03000180
03000180
03000180
03000180
03000180
03000000
03000000
03018000
03018000
03018000
03FF8000
03FF8000
03018000
03018000
03018000
03018000
03000000
030000C0
030000C0
030000C0
030000C0
030000C0
030000C0
030000C0
3FFFFFC0
3FFFFFC0
00000600
00000C00
00000C00
00000C00
00000E10
000007F0
000001C0
ENDCHAR

STARTCHAR Edieresis
ENCODING 203
SWIDTH 600 0
DWIDTH 30 0
BBX 28 37 0 0
BITMAP
00C03000
01E07800
01E07800
00C03000
00000000
00000000
00000000
00000000
3FFFFF80
3FFFFF80
03000180
03000180
03000180
03000180
03000180
03000180
03000000
03000000
03018000
03018000
03018000
03FF8000
03FF8000
03018000
03018000
03018000
03018000
03000000
030000C0
030000C0
030000C0
030000C0
030000C0
030000C0
030000C0
3FFFFFC0
3FFFFFC0
ENDCHAR

STARTCHAR Edotaccent
ENCODING 204
SWIDTH 600 0
DWIDTH 30 0
BBX 27 37 1 0
BITMAP
000E0000
001F0000
001F0000
001F0000
000E0000
00000000
00000000
00000000
3FFFFF00
3FFFFF00
03000300
03000300
03000300
03000300
03000300
03000300
03000000
03000000
03018000
03018000
03018000
03FF8000
03FF8000
03018000
03018000
03018000
03018000
03000000
03000180
03000180
03000180
03000180
03000180
03000180
03000180
3FFFFF80
3FFFFF80
ENDCHAR

STARTCHAR Iacute
ENCODING 205
SWIDTH 600 0
DWIDTH 30 0
BBX 22 39 4 0
BITMAP
000600
000E00
003C00
007000
00E000
01C000
018000
000000
000000
000000
3FFFF0
3FFFF0
003000
003000
003000
003000
003000
003000
003000
003000
003000
003000
003000
003000
003000
003000
003000
003000
003000
003000
003000
003000
003000
003000
003000
003000
003000
3FFFF0
3FFFF0
ENDCHAR

STARTCHAR Icircumflex
ENCODING 206
SWIDTH 600 0
DWIDTH 30 0
BBX 22 39 4 0
BITMAP
003000
007800
00FC00
03CF00
078780
0E01C0
0C00C0
000000
000000
000000
3FFFF0
3FFFF0
003000
003000
003000
003000
003000
003000
003000
003000
003000
003000
003000
003000
003000
003000
003000
003000
003000
003000
003000
003000
003000
003000
003000
003000
003000
3FFFF0
3FFFF0
ENDCHAR

STARTCHAR Imacron
ENCODING 207
SWIDTH 600 0
DWIDTH 30 0
BBX 22 35 4 0
BITMAP
0FFFC0
0FFFC0
000000
000000
000000
000000
3FFFF0
3FFFF0
003000
003000
003000
003000
003000
003000
003000
003000
003000
003000
003000
003000
003000
003000
003000
003000
003000
003000
003000
003000
003000
003000
003000
003000
003000
3FFFF0
3FFFF0
ENDCHAR

STARTCHAR Eth
ENCODING 208
SWIDTH 600 0
DWIDTH 30 0
BBX 30 29 -2 0
BITMAP
0FFFF000
0FFFFC00
01801E00
01800700
01800380
018001C0
018000C0
01800060
01800060
01800070
01800030
01800030
01800030
3FFF8030
3FFF8030
01800030
01800030
01800030
01800030
01800030
01800060
01800060
018000C0
018001C0
01800380
01800700
01801E00
0FFFFC00
0FFFF000
ENDCHAR

STARTCHAR Ncommaaccent
ENCODING 209
SWIDTH 600 0
DWIDTH 30 0
BBX 31 42 -1 -13
BITMAP
3F801FF8
3F801FF8
03C000C0
03E000C0
036000C0
037000C0
033000C0
031800C0
031C00C0
030C00C0
030E00C0
030600C0
030300C0
030380C0
030180C0
0301C0C0
0300C0C0
030060C0
030070C0
030030C0
030038C0
030018C0
03001CC0
03000CC0
030006C0
030007C0
030003C0
1FF803C0
1FF801C0
00000000
00000000
00000000
00038000
0007C000
0007C000
0007C000
0003C000
0000C000
00018000
00030000
00070000
00040000
ENDCHAR

STARTCHAR Omacron
ENCODING 210
SWIDTH 600 0
DWIDTH 30 0
BBX 28 36 2 -1
BITMAP
03FFF800
03FFF800
00000000
00000000
00000000
003F8000
00FFE000
01E0F000
03803C00
07000C00
0E000600
1C000700
18000300
38000180
30000180
30000180
700000C0
600000C0
600000C0
600000C0
600000C0
600000C0
600000C0
600000C0
700000C0
30000180
30000180
38000180
18000300
1C000700
0E000600
07000C00
03803C00
01E0F000
00FFE000
003F8000
ENDCHAR

STARTCHAR Kcommaaccent
ENCODING 211
SWIDTH 600 0
DWIDTH 30 0
BBX 29 42 1 -13
BITMAP
3FF81FE0
3FF83FE0
03000700
03000E00
03001C00
03003800
03007000
0300E000
0301C000
03038000
03070000
030E0000
031C0000
033F0000
03E38000
03C1C000
0380E000
03007000
03003800
03001800
03001C00
03000C00
03000C00
03000600
03000600
03000700
03000300
3FF803F0
3FF803F0
00000000
00000000
00000000
00070000
000F8000
000F8000
000F8000
00078000
00030000
00030000
00060000
000E0000
000C0000
ENDCHAR

STARTCHAR Ocircumflex
ENCODING 212
SWIDTH 600 0
DWIDTH 30 0
BBX 28 40 2 -1
BITMAP
00060000
001F0000
003B8000
0071E000
01E0F000
03803800
01001800
00000000
00000000
003F8000
00FFE000
01E0F800
07803C00
07000C00
0E000600
1C000700
18000300
38000180
30000180
30000180
700000C0
600000C0
600000C0
600000C0
600000C0
600000C0
600000C0
600000C0
700000C0
30000180
30000180
38000180
18000300
1C000700
0E000600
07000C00
03803C00
01E0F000
00FFE000
003F8000
ENDCHAR

STARTCHAR Otilde
ENCODING 213
SWIDTH 600 0
DWIDTH 30 0
BBX 28 38 2 -1
BITMAP
00F00000
01FC1800
038E3800
0307F000
0001E000
00000000
00000000
003F8000
00FFE000
01E0F800
07803C00
07000C00
0E000600
1C000700
18000300
38000180
30000180
30000180
700000C0
600000C0
600000C0
600000C0
600000C0
600000C0
600000C0
600000C0
700000C0
30000180
30000180
38000180
18000300
1C000700
0E000600
07000C00
03803C00
01E0F000
00FFE000
003F8000
ENDCHAR

STARTCHAR Odieresis
ENCODING 214
SWIDTH 600 0
DWIDTH 30 0
BBX 28 38 2 -1
BITMAP
01803000
03C07800
03C07800
01803000
00000000
00000000
00000000
003F8000
00FFE000
01E0F800
07803C00
06000C00
0C000600
1C000700
18000300
38000180
30000180
30000180
700000C0
600000C0
600000C0
600000C0
600000C0
600000C0
600000C0
600000C0
700000C0
30000180
30000180
38000180
18000300
1C000700
0C000600
07000C00
07803C00
01E0F000
00FFE000
003F8000
ENDCHAR

STARTCHAR multiply
ENCODING 215
SWIDTH 600 0
DWIDTH 30 0
BBX 20 17 5 6
BITMAP
200040
3000C0
3801C0
1C0380
0E0700
070E00
039C00
01F800
00F000
00F000
01F800
039C00
070E00
0E0700
1C0380
3801C0
3000C0
ENDCHAR

STARTCHAR Oslash
ENCODING 216
SWIDTH 600 0
DWIDTH 30 0
BBX 29 33 1 -2
BITMAP
00000060
001FC060
007FF0C0
00F07DC0
01C01F80
03800700
07000700
0E000F80
0C001D80
1C0039C0
180030C0
180070C0
3800E060
3001C060
30018060
30038060
30070060
300E0060
300C0060
30180060
38380060
187000C0
186000C0
1CC000C0
0DC00180
0F800380
07000300
07800600
0FC01E00
1CF07800
387FF000
301FC000
30000000
ENDCHAR

STARTCHAR Uogonek
ENCODING 217
SWIDTH 600 0
DWIDTH 30 0
BBX 30 36 0 -7
BITMAP
3FF83FF0
3FF03FF0
06000180
06000180
06000180
06000180
06000180
06000180
06000180
06000180
06000180
06000180
06000180
06000180
06000180
06000180
06000180
06000180
06000180
06000180
06000180
06000180
07000180
03000300
03800300
01C00600
00E00E00
00783C00
003FF000
000FC000
00020000
00060000
00060000
00060800
0003F800
0000E000
ENDCHAR

STARTCHAR Uacute
ENCODING 218
SWIDTH 600 0
DWIDTH 30 0
BBX 30 40 0 -1
BITMAP
00006000
0000E000
0003C000
00070000
000E0000
001C0000
00180000
00000000
00000000
00000000
3FF03FF0
3FF03FF0
06000180
06000180
06000180
06000180
06000180
06000180
06000180
06000180
06000180
06000180
06000180
06000180
06000180
06000180
06000180
06000180
06000180
06000180
06000180
06000180
07000380
03000300
03800700
01800600
01E00E00
00F83C00
003FF000
000FC000
ENDCHAR

STARTCHAR Ucircumflex
ENCODING 219
SWIDTH 600 0
DWIDTH 30 0
BBX 30 40 0 -1
BITMAP
00030000
00078000
000FC000
003CF000
00783800
00E01C00
00C00C00
00000000
00000000
00000000
3FF03FF0
3FF03FF0
06000180
06000180
06000180
06000180
06000180
06000180
06000180
06000180
06000180
06000180
06000180
06000180
06000180
06000180
06000180
06000180
06000180
06000180
06000180
06000180
07000380
03000300
03800700
01800600
01E00E00
00F83C00
003FF000
000FC000
ENDCHAR

STARTCHAR Udieresis
ENCODING 220
SWIDTH 600 0
DWIDTH 30 0
BBX 30 38 0 -1
BITMAP
00601C00
00F03C00
00F03C00
00601800
00000000
00000000
00000000
00000000
3FF03FF0
3FF03FF0
06000180
06000180
06000180
06000180
06000180
06000180
06000180
06000180
06000180
06000180
06000180
06000180
06000180
06000180
06000180
06000180
06000180
06000180
06000180
06000180
07000380
03000300
03800700
01C00600
00E01C00
00787800
003FF000
000FC000
ENDCHAR

STARTCHAR Utilde
ENCODING 221
SWIDTH 600 0
DWIDTH 30 0
BBX 30 37 0 -1
BITMAP
003C0000
00FE0600
01C78E00
0181FC00
0000F000
00000000
00000000
3FF03FF0
3FF03FF0
06000180
06000180
06000180
06000180
06000180
06000180
06000180
06000180
06000180
06000180
06000180
06000180
06000180
06000180
06000180
06000180
06000180
06000180
06000180
06000180
07000380
03000300
03800700
01800600
01E00E00
00F83C00
003FF000
000FC000
ENDCHAR

STARTCHAR Umacron
ENCODING 222
SWIDTH 600 0
DWIDTH 30 0
BBX 30 36 0 -1
BITMAP
00FFFC00
00FFFC00
00000000
00000000
00000000
00000000
3FF03FF0
3FF03FF0
06000180
06000180
06000180
06000180
06000180
06000180
06000180
06000180
06000180
06000180
06000180
06000180
06000180
06000180
06000180
06000180
06000180
06000180
06000180
06000180
07000380
03000300
03800700
01800600
01E00E00
00F83C00
003FF000
000FC000
ENDCHAR

STARTCHAR germandbls
ENCODING 223
SWIDTH 600 0
DWIDTH 30 0
BBX 27 32 0 -1
BITMAP
001F0000
007FC000
00E0E000
01C07000
03803000
03001800
03001800
03001800
03001800
03003800
03003000
0300E000
0307C000
0307F000
03007800
03001C00
03000E00
03000700
03000300
03000380
03000180
03000180
03000180
03000180
03000180
03060180
03060180
03070300
03030700
3FC38E00
3FC1FC00
0000F800
ENDCHAR

STARTCHAR amacron
ENCODING 224
SWIDTH 600 0
DWIDTH 30 0
BBX 26 29 3 -1
BITMAP
03FFE000
03FFE000
00000000
00000000
00000000
00000000
007E0000
0FFF8000
1F81E000
08006000
00003000
00003000
00003000
00003000
00003000
01FFB000
07FFF000
1F007000
3C003000
30003000
70003000
60003000
60003000
60007000
7000F000
3003F000
3C0F3F00
0FFE3F00
07F00000
ENDCHAR

STARTCHAR aacute
ENCODING 225
SWIDTH 600 0
DWIDTH 30 0
BBX 26 34 3 -1
BITMAP
00010000
00038000
00070000
000E0000
001C0000
00380000
00600000
00400000
00000000
00000000
00000000
00FE0000
0FFF8000
1F81E000
08006000
00003000
00003000
00003000
00003000
00003000
01FFB000
07FFF000
1F007000
3C003000
30003000
70003000
60003000
60003000
60007000
7000F000
3003F000
3C0F3F00
0FFE3F00
07F00000
ENDCHAR

STARTCHAR acircumflex
ENCODING 226
SWIDTH 600 0
DWIDTH 30 0
BBX 26 33 3 -1
BITMAP
00080000
003E0000
00770000
00E38000
01C1E000
03807000
02002000
00000000
00000000
00000000
00FE0000
0FFF8000
1F81E000
08006000
00003000
00003000
00003000
00003000
00003000
01FFB000
07FFF000
1F007000
3C003000
30003000
70003000
60003000
60003000
60007000
7000F000
3003F000
3C0F3F00
0FFE3F00
07F00000
ENDCHAR

STARTCHAR atilde
ENCODING 227
SWIDTH 600 0
DWIDTH 30 0
BBX 26 31 3 -1
BITMAP
00E00000
03F83000
071C7000
060FE000
0003C000
00000000
00000000
00000000
00FF0000
0FFFC000
1F81E000
08006000
00003000
00003000
00003000
00003000
00003000
01FFB000
07FFF000
1F007000
3C003000
30003000
70003000
60003000
60003000
60007000
7000F000
3003F000
3C0F3F00
0FFE3F00
07F00000
ENDCHAR

STARTCHAR adieresis
ENCODING 228
SWIDTH 600 0
DWIDTH 30 0
BBX 26 31 3 -1
BITMAP
03006000
0780F000
0780F000
03006000
00000000
00000000
00000000
00000000
00FE0000
0FFF8000
1F01E000
08006000
00007000
00003000
00003000
00003000
00003000
01FFB000
07FFF000
1F00F000
38003000
30003000
60003000
60003000
60003000
60007000
6000F000
3003F000
3C1F3F00
1FFE3F00
07F00000
ENDCHAR

STARTCHAR aring
ENCODING 229
SWIDTH 600 0
DWIDTH 30 0
BBX 26 34 3 -1
BITMAP
001C0000
003F0000
00630000
00C18000
00C18000
00C18000
00630000
003E0000
000C0000
00000000
00000000
007E0000
07FF8000
0F81E000
08006000
00007000
00003000
00003000
00003000
00003000
01FFB000
07FFF000
1F00F000
3C003000
30003000
70003000
60003000
60003000
60007000
7000F000
3003F000
3C0F3F00
0FFE3F00
03F00000
ENDCHAR

STARTCHAR ae
ENCODING 230
SWIDTH 600 0
DWIDTH 30 0
BBX 32 23 -1 -1
BITMAP
00F80F80
07FE1FC0
0F0F38E0
04037070
0003E030
0001C018
0001C018
0001C00C
0001800C
01FF800C
0FFFFFFC
1E03FFFC
38018000
70018000
60018000
6001C000
6001C000
7003E000
3007E00C
380FF03C
1E1DB878
0FF99FE0
03E00780
ENDCHAR

STARTCHAR iogonek
ENCODING 231
SWIDTH 600 0
DWIDTH 30 0
BBX 24 38 3 -7
BITMAP
003800
003800
003800
003800
003800
000000
000000
000000
000000
000000
0FF800
0FF800
001800
001800
001800
001800
001800
001800
001800
001800
001800
001800
001800
001800
001800
001800
001800
001800
001800
3FFFFC
3FFFFC
003000
002000
006000
006000
002180
003F80
000E00
ENDCHAR

STARTCHAR ccaron
ENCODING 232
SWIDTH 600 0
DWIDTH 30 0
BBX 25 33 3 -1
BITMAP
06002000
0700E000
0381C000
01E38000
00F70000
003E0000
00180000
00000000
00000000
00000000
007F0000
03FFCC00
0781FC00
0E003C00
1C001C00
18000C00
30000C00
30000C00
60000000
60000000
60000000
60000000
60000000
60000000
70000000
30000000
30000000
38000600
1C000E00
0E003C00
0780F800
03FFE000
007F0000
ENDCHAR

STARTCHAR eacute
ENCODING 233
SWIDTH 600 0
DWIDTH 30 0
BBX 27 34 1 -1
BITMAP
00008000
0001C000
00038000
00070000
000E0000
003C0000
00300000
00200000
00000000
00000000
00000000
003F8000
00FFF000
03E07800
07001C00
0E000E00
0C000700
18000300
18000380
30000180
30000180
3FFFFF80
3FFFFF80
30000000
30000000
38000000
18000000
1C000000
0E000000
06000180
07800780
01E03F00
00FFFC00
001FE000
ENDCHAR

STARTCHAR eogonek
ENCODING 234
SWIDTH 600 0
DWIDTH 30 0
BBX 26 29 2 -7
BITMAP
007F0000
01FFE000
07C0F000
0E003800
1C001C00
18000E00
30000600
30000700
70000300
60000300
7FFFFF00
7FFFFF00
60000000
70000000
30000000
30000000
38000000
1C000000
0E000300
07000F00
03C07E00
01FFF800
003F8000
00100000
00300000
00300000
00304000
001FC000
00070000
ENDCHAR

STARTCHAR edieresis
ENCODING 235
SWIDTH 600 0
DWIDTH 30 0
BBX 27 31 1 -1
BITMAP
01803000
03C07800
03C07800
01803000
00000000
00000000
00000000
00000000
003F8000
00FFF000
03C07800
07001C00
0E000E00
1C000700
18000300
18000380
30000180
30000180
3FFFFF80
3FFFFF80
30000000
30000000
38000000
18000000
1C000000
0C000000
06000180
07800780
01E03F00
00FFFC00
001FE000
ENDCHAR

STARTCHAR edotaccent
ENCODING 236
SWIDTH 600 0
DWIDTH 30 0
BBX 27 32 1 -1
BITMAP
000E0000
001F0000
001F0000
001F0000
000E0000
00000000
00000000
00000000
00000000
003F8000
00FFF000
03E07800
07001C00
0E000E00
0C000700
18000300
18000380
30000180
30000180
3FFFFF80
3FFFFF80
30000000
30000000
38000000
18000000
1C000000
0E000000
06000180
07800780
01E03F00
00FFFC00
001FE000
ENDCHAR

STARTCHAR iacute
ENCODING 237
SWIDTH 600 0
DWIDTH 30 0
BBX 24 32 3 0
BITMAP
000300
000700
000E00
003C00
007000
00E000
00C000
000000
000000
000000
000000
0FF800
0FF800
001800
001800
001800
001800
001800
001800
001800
001800
001800
001800
001800
001800
001800
001800
001800
001800
001800
3FFFFC
3FFFFC
ENDCHAR

STARTCHAR icircumflex
ENCODING 238
SWIDTH 600 0
DWIDTH 30 0
BBX 24 32 3 0
BITMAP
000800
003C00
007E00
00E700
03C3C0
0700E0
060060
000000
000000
000000
000000
0FF800
0FF800
001800
001800
001800
001800
001800
001800
001800
001800
001800
001800
001800
001800
001800
001800
001800
001800
001800
3FFFFC
3FFFFC
ENDCHAR

STARTCHAR imacron
ENCODING 239
SWIDTH 600 0
DWIDTH 30 0
BBX 24 28 3 0
BITMAP
07FFE0
07FFE0
000000
000000
000000
000000
000000
0FF800
0FF800
001800
001800
001800
001800
001800
001800
001800
001800
001800
001800
001800
001800
001800
001800
001800
001800
001800
3FFFFC
3FFFFC
ENDCHAR

STARTCHAR dcroat
ENCODING 240
SWIDTH 600 0
DWIDTH 30 0
BBX 29 32 2 -1
BITMAP
00007E00
00007E00
00000600
00000600
00000600
000FFFE0
000FFFE0
00000600
00000600
007E0600
01FF8600
0781E600
0E007600
1C003E00
18001E00
30000E00
30000E00
70000600
60000600
60000600
60000600
60000600
60000600
70000600
30000E00
30000E00
18001E00
1C003E00
0E007600
0781E7E0
01FF87E0
007E0000
ENDCHAR

STARTCHAR ncommaaccent
ENCODING 241
SWIDTH 600 0
DWIDTH 30 0
BBX 29 35 0 -13
BITMAP
0007E000
1F1FF800
1F381C00
03600E00
03C00700
03800300
03000300
03000300
03000300
03000300
03000300
03000300
03000300
03000300
03000300
03000300
03000300
03000300
03000300
03000300
3FE01FE0
3FE01FE0
00000000
00000000
00000000
00070000
000F8000
000F8000
000F8000
00078000
00038000
00030000
00060000
000E0000
00080000
ENDCHAR

STARTCHAR omacron
ENCODING 242
SWIDTH 600 0
DWIDTH 30 0
BBX 26 29 2 -1
BITMAP
07FFF000
07FFF000
00000000
00000000
00000000
00000000
007F0000
01FFC000
07C1F000
0E003800
1C001C00
18000C00
38000600
30000600
70000300
60000300
60000300
60000300
60000300
60000300
70000700
30000600
38000600
18000C00
1C001C00
0F003800
07C1F000
01FFC000
007F0000
ENDCHAR

STARTCHAR kcommaaccent
ENCODING 243
SWIDTH 600 0
DWIDTH 30 0
BBX 28 44 2 -13
BITMAP
3F000000
3F000000
03000000
03000000
03000000
03000000
03000000
03000000
03000000
03000000
0301FF00
0301FF00
03007000
0301C000
03038000
03070000
030E0000
033C0000
03700000
03F80000
03DC0000
038E0000
03070000
03038000
0301C000
0300E000
03007000
03003800
03001C00
3F007FC0
3F007FC0
00000000
00000000
00000000
001C0000
003E0000
003E0000
003E0000
001E0000
000E0000
000C0000
00180000
00380000
00200000
ENDCHAR

STARTCHAR ocircumflex
ENCODING 244
SWIDTH 600 0
DWIDTH 30 0
BBX 26 33 2 -1
BITMAP
00080000
003E0000
00770000
00E38000
03C1E000
07007000
06003000
00000000
00000000
00000000
007F0000
01FFC000
07C1F000
0E003800
1C001C00
18000C00
38000600
30000600
70000300
60000300
60000300
60000300
60000300
60000300
70000700
30000600
38000600
18000C00
1C001C00
0F003800
07C1F000
01FFC000
007F0000
ENDCHAR

STARTCHAR otilde
ENCODING 245
SWIDTH 600 0
DWIDTH 30 0
BBX 26 31 2 -1
BITMAP
01E00000
03F83000
071C7000
060FE000
0003C000
00000000
00000000
00000000
007F0000
01FFC000
07C1F000
0E003800
1C001C00
18000C00
38000600
30000600
70000300
60000300
60000300
60000300
60000300
60000300
70000700
30000600
38000600
18000C00
1C001C00
0F003800
07C1F000
01FFC000
007F0000
ENDCHAR

STARTCHAR odieresis
ENCODING 246
SWIDTH 600 0
DWIDTH 30 0
BBX 26 31 3 -1
BITMAP
03006000
0780F000
0780F000
03006000
00000000
00000000
00000000
00000000
007F0000
01FFC000
07C1F000
0E003800
1C001C00
18000C00
30000600
30000600
70000300
60000300
60000300
60000300
60000300
60000300
70000300
30000600
30000600
18000C00
1C001C00
0E003800
07C1F000
01FFC000
007F0000
ENDCHAR

STARTCHAR divide
ENCODING 247
SWIDTH 600 0
DWIDTH 30 0
BBX 26 23 2 3
BITMAP
000C0000
001E0000
001E0000
000C0000
00000000
00000000
00000000
00000000
00000000
00000000
00000000
3FFFFF00
3FFFFF00
00000000
00000000
00000000
00000000
00000000
00000000
000C0000
001E0000
001E0000
000C0000
ENDCHAR

STARTCHAR oslash
ENCODING 248
SWIDTH 600 0
DWIDTH 30 0
BBX 28 25 1 -2
BITMAP
000000E0
003FC1C0
00FFF380
01E07F00
07801E00
06001F00
0C003B00
1C007180
18006180
3800C1C0
300180C0
300300C0
300700C0
300E00C0
301C00C0
383801C0
18700180
1CE00380
0DC00300
07800700
07801E00
0FE07C00
1CFFF000
383FC000
30000000
ENDCHAR

STARTCHAR uogonek
ENCODING 249
SWIDTH 600 0
DWIDTH 30 0
BBX 30 28 1 -7
BITMAP
3F00FE00
3F00FE00
03000600
03000600
03000600
03000600
03000600
03000600
03000600
03000600
03000600
03000600
03000600
03000600
03000600
03000600
03000E00
03801E00
01807E00
01C1E7C0
00FFC7C0
003E0600
00000C00
00000C00
00000C00
00000410
000007F0
000001C0
ENDCHAR

STARTCHAR uacute
ENCODING 250
SWIDTH 600 0
DWIDTH 30 0
BBX 29 33 0 -1
BITMAP
0000E000
0001C000
00038000
00070000
000E0000
001C0000
00380000
00000000
00000000
00000000
00000000
3F007F00
3F007F00
03000300
03000300
03000300
03000300
03000300
03000300
03000300
03000300
03000300
03000300
03000300
03000300
03000300
03000300
03000700
03800F00
01803F00
01E0F3E0
00FFE3E0
003F0000
ENDCHAR

STARTCHAR ucircumflex
ENCODING 251
SWIDTH 600 0
DWIDTH 30 0
BBX 29 33 0 -1
BITMAP
00020000
00070000
001FC000
0038E000
00707000
01E03C00
01800C00
00000000
00000000
00000000
00000000
3F007F00
3F007F00
03000300
03000300
03000300
03000300
03000300
03000300
03000300
03000300
03000300
03000300
03000300
03000300
03000300
03000300
03000700
03800F00
01803F00
01E0F3E0
00FFE3E0
003F0000
ENDCHAR

STARTCHAR udieresis
ENCODING 252
SWIDTH 600 0
DWIDTH 30 0
BBX 29 31 0 -1
BITMAP
00C01800
01E03C00
01E03C00
00C01800
00000000
00000000
00000000
00000000
00000000
3F007F00
3F007F00
03000300
03000300
03000300
03000300
03000300
03000300
03000300
03000300
03000300
03000300
03000300
03000300
03000300
03000300
03000700
03800F00
01803F00
01E0F3E0
00FFE3E0
003F0000
ENDCHAR

STARTCHAR utilde
ENCODING 253
SWIDTH 600 0
DWIDTH 30 0
BBX 29 30 0 -1
BITMAP
003C0000
00FE0600
01C78C00
0183FC00
0000F000
00000000
00000000
00000000
3F007F00
3F007F00
03000300
03000300
03000300
03000300
03000300
03000300
03000300
03000300
03000300
03000300
03000300
03000300
03000300
03000300
03000700
03800F00
01803F00
01E0F3E0
00FFE3E0
003F0000
ENDCHAR

STARTCHAR umacron
ENCODING 254
SWIDTH 600 0
DWIDTH 30 0
BBX 29 29 0 -1
BITMAP
01FFFC00
01FFFC00
00000000
00000000
00000000
00000000
00000000
3F007F00
3F007F00
03000300
03000300
03000300
03000300
03000300
03000300
03000300
03000300
03000300
03000300
03000300
03000300
03000300
03000300
03000700
03800F00
01803F00
01E0F3E0
00FFE3E0
003F0000
ENDCHAR

STARTCHAR dotaccent
ENCODING 255
SWIDTH 600 0
DWIDTH 30 0
BBX 8 5 11 25
BITMAP
38
7C
7C
7C
38
ENDCHAR
ENDFONT
